<mxfile host="app.diagrams.net" modified="2023-04-08T20:06:37.759Z" agent="Mozilla/5.0 (Windows NT 10.0; Win64; x64) AppleWebKit/537.36 (KHTML, like Gecko) Chrome/111.0.0.0 Safari/537.36" etag="E5_LDBbUZpgvmF1It5Ak" version="21.1.5" type="device">
  <diagram name="Page-1" id="qEiPD-bbxA_wZYft1Wox">
    <mxGraphModel dx="1962" dy="1265" grid="1" gridSize="10" guides="1" tooltips="1" connect="1" arrows="1" fold="1" page="0" pageScale="1" pageWidth="850" pageHeight="1100" math="0" shadow="0">
      <root>
        <mxCell id="0" />
        <mxCell id="1" parent="0" />
        <mxCell id="pGuGlMvfogNPuBMcJ-Jp-1" value="Πολίτης" style="swimlane;fontStyle=0;childLayout=stackLayout;horizontal=1;startSize=30;horizontalStack=0;resizeParent=1;resizeParentMax=0;resizeLast=0;collapsible=1;marginBottom=0;whiteSpace=wrap;html=1;" parent="1" vertex="1">
          <mxGeometry x="65" y="70" width="170" height="150" as="geometry">
            <mxRectangle x="65" y="70" width="80" height="30" as="alternateBounds" />
          </mxGeometry>
        </mxCell>
        <mxCell id="pGuGlMvfogNPuBMcJ-Jp-2" value="ΑΦΜ: String" style="text;strokeColor=none;fillColor=none;align=left;verticalAlign=middle;spacingLeft=4;spacingRight=4;overflow=hidden;points=[[0,0.5],[1,0.5]];portConstraint=eastwest;rotatable=0;whiteSpace=wrap;html=1;" parent="pGuGlMvfogNPuBMcJ-Jp-1" vertex="1">
          <mxGeometry y="30" width="170" height="30" as="geometry" />
        </mxCell>
        <mxCell id="pGuGlMvfogNPuBMcJ-Jp-74" value="Ημ. Γέννησης: Date" style="text;strokeColor=none;fillColor=none;align=left;verticalAlign=middle;spacingLeft=4;spacingRight=4;overflow=hidden;points=[[0,0.5],[1,0.5]];portConstraint=eastwest;rotatable=0;whiteSpace=wrap;html=1;" parent="pGuGlMvfogNPuBMcJ-Jp-1" vertex="1">
          <mxGeometry y="60" width="170" height="30" as="geometry" />
        </mxCell>
        <mxCell id="WxK2jRO-NAs5T7-9zx6S-1" value="Εμβολιασμένος: Bool" style="text;strokeColor=none;fillColor=none;align=left;verticalAlign=middle;spacingLeft=4;spacingRight=4;overflow=hidden;points=[[0,0.5],[1,0.5]];portConstraint=eastwest;rotatable=0;whiteSpace=wrap;html=1;" parent="pGuGlMvfogNPuBMcJ-Jp-1" vertex="1">
          <mxGeometry y="90" width="170" height="30" as="geometry" />
        </mxCell>
        <mxCell id="pGuGlMvfogNPuBMcJ-Jp-11" value="/Ηλικία: int" style="text;strokeColor=none;fillColor=none;align=left;verticalAlign=middle;spacingLeft=4;spacingRight=4;overflow=hidden;points=[[0,0.5],[1,0.5]];portConstraint=eastwest;rotatable=0;whiteSpace=wrap;html=1;" parent="pGuGlMvfogNPuBMcJ-Jp-1" vertex="1">
          <mxGeometry y="120" width="170" height="30" as="geometry" />
        </mxCell>
        <mxCell id="pGuGlMvfogNPuBMcJ-Jp-13" value="Εμβολιαστικό Κέντρο" style="swimlane;fontStyle=0;childLayout=stackLayout;horizontal=1;startSize=30;horizontalStack=0;resizeParent=1;resizeParentMax=0;resizeLast=0;collapsible=1;marginBottom=0;whiteSpace=wrap;html=1;" parent="1" vertex="1">
          <mxGeometry x="-60" y="510" width="230" height="240" as="geometry">
            <mxRectangle x="-60" y="510" width="150" height="30" as="alternateBounds" />
          </mxGeometry>
        </mxCell>
        <mxCell id="pGuGlMvfogNPuBMcJ-Jp-14" value="ID Κέντρου: String" style="text;strokeColor=none;fillColor=none;align=left;verticalAlign=middle;spacingLeft=4;spacingRight=4;overflow=hidden;points=[[0,0.5],[1,0.5]];portConstraint=eastwest;rotatable=0;whiteSpace=wrap;html=1;" parent="pGuGlMvfogNPuBMcJ-Jp-13" vertex="1">
          <mxGeometry y="30" width="230" height="30" as="geometry" />
        </mxCell>
        <mxCell id="pGuGlMvfogNPuBMcJ-Jp-15" value="Διεύθυνση: Address" style="text;strokeColor=none;fillColor=none;align=left;verticalAlign=middle;spacingLeft=4;spacingRight=4;overflow=hidden;points=[[0,0.5],[1,0.5]];portConstraint=eastwest;rotatable=0;whiteSpace=wrap;html=1;" parent="pGuGlMvfogNPuBMcJ-Jp-13" vertex="1">
          <mxGeometry y="60" width="230" height="30" as="geometry" />
        </mxCell>
        <mxCell id="pGuGlMvfogNPuBMcJ-Jp-69" value="Ημέρες: Date[]" style="text;strokeColor=none;fillColor=none;align=left;verticalAlign=middle;spacingLeft=4;spacingRight=4;overflow=hidden;points=[[0,0.5],[1,0.5]];portConstraint=eastwest;rotatable=0;whiteSpace=wrap;html=1;" parent="pGuGlMvfogNPuBMcJ-Jp-13" vertex="1">
          <mxGeometry y="90" width="230" height="30" as="geometry" />
        </mxCell>
        <mxCell id="pGuGlMvfogNPuBMcJ-Jp-94" value="Διάρκ. Ραντεβού: int" style="text;strokeColor=none;fillColor=none;align=left;verticalAlign=middle;spacingLeft=4;spacingRight=4;overflow=hidden;points=[[0,0.5],[1,0.5]];portConstraint=eastwest;rotatable=0;whiteSpace=wrap;html=1;" parent="pGuGlMvfogNPuBMcJ-Jp-13" vertex="1">
          <mxGeometry y="120" width="230" height="30" as="geometry" />
        </mxCell>
        <mxCell id="pGuGlMvfogNPuBMcJ-Jp-20" value="Χωρητικότητα: int" style="text;strokeColor=none;fillColor=none;align=left;verticalAlign=middle;spacingLeft=4;spacingRight=4;overflow=hidden;points=[[0,0.5],[1,0.5]];portConstraint=eastwest;rotatable=0;whiteSpace=wrap;html=1;" parent="pGuGlMvfogNPuBMcJ-Jp-13" vertex="1">
          <mxGeometry y="150" width="230" height="30" as="geometry" />
        </mxCell>
        <mxCell id="pGuGlMvfogNPuBMcJ-Jp-68" value="Ωράριο ανα Ημερα: TimeRange[]" style="text;strokeColor=none;fillColor=none;align=left;verticalAlign=middle;spacingLeft=4;spacingRight=4;overflow=hidden;points=[[0,0.5],[1,0.5]];portConstraint=eastwest;rotatable=0;whiteSpace=wrap;html=1;" parent="pGuGlMvfogNPuBMcJ-Jp-13" vertex="1">
          <mxGeometry y="180" width="230" height="30" as="geometry" />
        </mxCell>
        <mxCell id="pGuGlMvfogNPuBMcJ-Jp-21" value="Διαθέσιμότητα: HashMap&amp;lt;Εμβόλιο, int&amp;gt;" style="text;strokeColor=none;fillColor=none;align=left;verticalAlign=middle;spacingLeft=4;spacingRight=4;overflow=hidden;points=[[0,0.5],[1,0.5]];portConstraint=eastwest;rotatable=0;whiteSpace=wrap;html=1;" parent="pGuGlMvfogNPuBMcJ-Jp-13" vertex="1">
          <mxGeometry y="210" width="230" height="30" as="geometry" />
        </mxCell>
        <mxCell id="pGuGlMvfogNPuBMcJ-Jp-22" value="Εμβόλιο" style="swimlane;fontStyle=0;childLayout=stackLayout;horizontal=1;startSize=30;horizontalStack=0;resizeParent=1;resizeParentMax=0;resizeLast=0;collapsible=1;marginBottom=0;whiteSpace=wrap;html=1;" parent="1" vertex="1">
          <mxGeometry x="300" y="300" width="160" height="90" as="geometry">
            <mxRectangle x="320" y="280" width="80" height="30" as="alternateBounds" />
          </mxGeometry>
        </mxCell>
        <mxCell id="pGuGlMvfogNPuBMcJ-Jp-23" value="Εταιρεία: String" style="text;strokeColor=none;fillColor=none;align=left;verticalAlign=middle;spacingLeft=4;spacingRight=4;overflow=hidden;points=[[0,0.5],[1,0.5]];portConstraint=eastwest;rotatable=0;whiteSpace=wrap;html=1;" parent="pGuGlMvfogNPuBMcJ-Jp-22" vertex="1">
          <mxGeometry y="30" width="160" height="30" as="geometry" />
        </mxCell>
        <mxCell id="pGuGlMvfogNPuBMcJ-Jp-25" value="Ημ. Λήξης: Date" style="text;strokeColor=none;fillColor=none;align=left;verticalAlign=middle;spacingLeft=4;spacingRight=4;overflow=hidden;points=[[0,0.5],[1,0.5]];portConstraint=eastwest;rotatable=0;whiteSpace=wrap;html=1;" parent="pGuGlMvfogNPuBMcJ-Jp-22" vertex="1">
          <mxGeometry y="60" width="160" height="30" as="geometry" />
        </mxCell>
        <mxCell id="pGuGlMvfogNPuBMcJ-Jp-46" style="edgeStyle=orthogonalEdgeStyle;rounded=0;orthogonalLoop=1;jettySize=auto;html=1;exitX=0.5;exitY=0;exitDx=0;exitDy=0;endArrow=block;endFill=0;" parent="1" source="pGuGlMvfogNPuBMcJ-Jp-27" target="pGuGlMvfogNPuBMcJ-Jp-22" edge="1">
          <mxGeometry relative="1" as="geometry">
            <Array as="points">
              <mxPoint x="275" y="440" />
              <mxPoint x="340" y="440" />
            </Array>
          </mxGeometry>
        </mxCell>
        <mxCell id="pGuGlMvfogNPuBMcJ-Jp-27" value="Μονοδοσικό Εμβόλιο" style="swimlane;fontStyle=0;childLayout=stackLayout;horizontal=1;startSize=30;horizontalStack=0;resizeParent=1;resizeParentMax=0;resizeLast=0;collapsible=1;marginBottom=0;whiteSpace=wrap;html=1;" parent="1" vertex="1">
          <mxGeometry x="180" y="460" width="180" height="60" as="geometry">
            <mxRectangle x="180" y="460" width="150" height="30" as="alternateBounds" />
          </mxGeometry>
        </mxCell>
        <mxCell id="pGuGlMvfogNPuBMcJ-Jp-32" value="Διδοσικό Εμβόλιο" style="swimlane;fontStyle=0;childLayout=stackLayout;horizontal=1;startSize=30;horizontalStack=0;resizeParent=1;resizeParentMax=0;resizeLast=0;collapsible=1;marginBottom=0;whiteSpace=wrap;html=1;" parent="1" vertex="1">
          <mxGeometry x="400" y="460" width="190" height="60" as="geometry">
            <mxRectangle x="400" y="460" width="130" height="30" as="alternateBounds" />
          </mxGeometry>
        </mxCell>
        <mxCell id="pGuGlMvfogNPuBMcJ-Jp-91" value="Περίοδος Αναμονής: DateRange" style="text;strokeColor=none;fillColor=none;align=left;verticalAlign=middle;spacingLeft=4;spacingRight=4;overflow=hidden;points=[[0,0.5],[1,0.5]];portConstraint=eastwest;rotatable=0;whiteSpace=wrap;html=1;" parent="pGuGlMvfogNPuBMcJ-Jp-32" vertex="1">
          <mxGeometry y="30" width="190" height="30" as="geometry" />
        </mxCell>
        <mxCell id="pGuGlMvfogNPuBMcJ-Jp-44" style="edgeStyle=orthogonalEdgeStyle;rounded=0;orthogonalLoop=1;jettySize=auto;html=1;endArrow=block;endFill=0;exitX=0.5;exitY=0;exitDx=0;exitDy=0;entryX=0.75;entryY=1;entryDx=0;entryDy=0;entryPerimeter=0;" parent="1" source="pGuGlMvfogNPuBMcJ-Jp-32" target="pGuGlMvfogNPuBMcJ-Jp-25" edge="1">
          <mxGeometry relative="1" as="geometry">
            <mxPoint x="510" y="470" as="sourcePoint" />
            <mxPoint x="420" y="430" as="targetPoint" />
            <Array as="points">
              <mxPoint x="480" y="460" />
              <mxPoint x="480" y="440" />
              <mxPoint x="420" y="440" />
            </Array>
          </mxGeometry>
        </mxCell>
        <mxCell id="pGuGlMvfogNPuBMcJ-Jp-47" value="Ραντεβού" style="swimlane;fontStyle=0;childLayout=stackLayout;horizontal=1;startSize=30;horizontalStack=0;resizeParent=1;resizeParentMax=0;resizeLast=0;collapsible=1;marginBottom=0;whiteSpace=wrap;html=1;" parent="1" vertex="1">
          <mxGeometry x="-50" y="290" width="190" height="90" as="geometry">
            <mxRectangle x="-50" y="290" width="90" height="30" as="alternateBounds" />
          </mxGeometry>
        </mxCell>
        <mxCell id="pGuGlMvfogNPuBMcJ-Jp-50" value="Ημερομηνία: Date" style="text;strokeColor=none;fillColor=none;align=left;verticalAlign=middle;spacingLeft=4;spacingRight=4;overflow=hidden;points=[[0,0.5],[1,0.5]];portConstraint=eastwest;rotatable=0;whiteSpace=wrap;html=1;" parent="pGuGlMvfogNPuBMcJ-Jp-47" vertex="1">
          <mxGeometry y="30" width="190" height="30" as="geometry" />
        </mxCell>
        <mxCell id="pGuGlMvfogNPuBMcJ-Jp-67" value="Ώρα: Time" style="text;strokeColor=none;fillColor=none;align=left;verticalAlign=middle;spacingLeft=4;spacingRight=4;overflow=hidden;points=[[0,0.5],[1,0.5]];portConstraint=eastwest;rotatable=0;whiteSpace=wrap;html=1;" parent="pGuGlMvfogNPuBMcJ-Jp-47" vertex="1">
          <mxGeometry y="60" width="190" height="30" as="geometry" />
        </mxCell>
        <mxCell id="pGuGlMvfogNPuBMcJ-Jp-52" value="Γιατρός" style="swimlane;fontStyle=0;childLayout=stackLayout;horizontal=1;startSize=30;horizontalStack=0;resizeParent=1;resizeParentMax=0;resizeLast=0;collapsible=1;marginBottom=0;whiteSpace=wrap;html=1;" parent="1" vertex="1">
          <mxGeometry x="-145" y="70" width="170" height="60" as="geometry">
            <mxRectangle x="-145" y="70" width="80" height="30" as="alternateBounds" />
          </mxGeometry>
        </mxCell>
        <mxCell id="pGuGlMvfogNPuBMcJ-Jp-63" value="" style="endArrow=none;html=1;rounded=0;exitX=0.478;exitY=1.017;exitDx=0;exitDy=0;exitPerimeter=0;" parent="1" source="pGuGlMvfogNPuBMcJ-Jp-67" edge="1">
          <mxGeometry width="50" height="50" relative="1" as="geometry">
            <mxPoint x="40" y="410" as="sourcePoint" />
            <mxPoint x="40" y="510" as="targetPoint" />
          </mxGeometry>
        </mxCell>
        <mxCell id="pGuGlMvfogNPuBMcJ-Jp-76" value="Χρήστης" style="swimlane;fontStyle=0;childLayout=stackLayout;horizontal=1;startSize=30;horizontalStack=0;resizeParent=1;resizeParentMax=0;resizeLast=0;collapsible=1;marginBottom=0;whiteSpace=wrap;html=1;" parent="1" vertex="1">
          <mxGeometry x="-25" y="-170" width="160" height="180" as="geometry">
            <mxRectangle x="320" y="280" width="80" height="30" as="alternateBounds" />
          </mxGeometry>
        </mxCell>
        <mxCell id="pGuGlMvfogNPuBMcJ-Jp-111" value="ΑΜΚΑ: String" style="text;strokeColor=none;fillColor=none;align=left;verticalAlign=middle;spacingLeft=4;spacingRight=4;overflow=hidden;points=[[0,0.5],[1,0.5]];portConstraint=eastwest;rotatable=0;whiteSpace=wrap;html=1;" parent="pGuGlMvfogNPuBMcJ-Jp-76" vertex="1">
          <mxGeometry y="30" width="160" height="30" as="geometry" />
        </mxCell>
        <mxCell id="pGuGlMvfogNPuBMcJ-Jp-4" value="Όνομα: String" style="text;strokeColor=none;fillColor=none;align=left;verticalAlign=middle;spacingLeft=4;spacingRight=4;overflow=hidden;points=[[0,0.5],[1,0.5]];portConstraint=eastwest;rotatable=0;whiteSpace=wrap;html=1;" parent="pGuGlMvfogNPuBMcJ-Jp-76" vertex="1">
          <mxGeometry y="60" width="160" height="30" as="geometry" />
        </mxCell>
        <mxCell id="pGuGlMvfogNPuBMcJ-Jp-10" value="Επώνυμο: String" style="text;strokeColor=none;fillColor=none;align=left;verticalAlign=middle;spacingLeft=4;spacingRight=4;overflow=hidden;points=[[0,0.5],[1,0.5]];portConstraint=eastwest;rotatable=0;whiteSpace=wrap;html=1;" parent="pGuGlMvfogNPuBMcJ-Jp-76" vertex="1">
          <mxGeometry y="90" width="160" height="30" as="geometry" />
        </mxCell>
        <mxCell id="pGuGlMvfogNPuBMcJ-Jp-95" value="Διεύθυνση: Address" style="text;strokeColor=none;fillColor=none;align=left;verticalAlign=middle;spacingLeft=4;spacingRight=4;overflow=hidden;points=[[0,0.5],[1,0.5]];portConstraint=eastwest;rotatable=0;whiteSpace=wrap;html=1;" parent="pGuGlMvfogNPuBMcJ-Jp-76" vertex="1">
          <mxGeometry y="120" width="160" height="30" as="geometry" />
        </mxCell>
        <mxCell id="pGuGlMvfogNPuBMcJ-Jp-12" value="Κινητό: PhoneNumber" style="text;strokeColor=none;fillColor=none;align=left;verticalAlign=middle;spacingLeft=4;spacingRight=4;overflow=hidden;points=[[0,0.5],[1,0.5]];portConstraint=eastwest;rotatable=0;whiteSpace=wrap;html=1;" parent="pGuGlMvfogNPuBMcJ-Jp-76" vertex="1">
          <mxGeometry y="150" width="160" height="30" as="geometry" />
        </mxCell>
        <mxCell id="pGuGlMvfogNPuBMcJ-Jp-80" style="edgeStyle=orthogonalEdgeStyle;rounded=0;orthogonalLoop=1;jettySize=auto;html=1;exitX=0.5;exitY=0;exitDx=0;exitDy=0;endArrow=block;endFill=0;" parent="1" edge="1">
          <mxGeometry relative="1" as="geometry">
            <mxPoint x="-40" y="70" as="sourcePoint" />
            <mxPoint x="25" y="10" as="targetPoint" />
            <Array as="points">
              <mxPoint x="-40" y="50" />
              <mxPoint x="25" y="50" />
            </Array>
          </mxGeometry>
        </mxCell>
        <mxCell id="pGuGlMvfogNPuBMcJ-Jp-81" style="edgeStyle=orthogonalEdgeStyle;rounded=0;orthogonalLoop=1;jettySize=auto;html=1;endArrow=block;endFill=0;exitX=0.5;exitY=0;exitDx=0;exitDy=0;entryX=0.75;entryY=1;entryDx=0;entryDy=0;entryPerimeter=0;" parent="1" edge="1">
          <mxGeometry relative="1" as="geometry">
            <mxPoint x="150" y="70" as="sourcePoint" />
            <mxPoint x="85" y="10" as="targetPoint" />
            <Array as="points">
              <mxPoint x="145" y="70" />
              <mxPoint x="145" y="50" />
              <mxPoint x="85" y="50" />
            </Array>
          </mxGeometry>
        </mxCell>
        <mxCell id="pGuGlMvfogNPuBMcJ-Jp-96" value="Διεύθυνση" style="swimlane;fontStyle=0;childLayout=stackLayout;horizontal=1;startSize=30;horizontalStack=0;resizeParent=1;resizeParentMax=0;resizeLast=0;collapsible=1;marginBottom=0;whiteSpace=wrap;html=1;" parent="1" vertex="1">
          <mxGeometry x="-320" y="410" width="170" height="120" as="geometry">
            <mxRectangle x="-320" y="410" width="100" height="30" as="alternateBounds" />
          </mxGeometry>
        </mxCell>
        <mxCell id="pGuGlMvfogNPuBMcJ-Jp-108" value="Δρόμος: String" style="text;strokeColor=none;fillColor=none;align=left;verticalAlign=middle;spacingLeft=4;spacingRight=4;overflow=hidden;points=[[0,0.5],[1,0.5]];portConstraint=eastwest;rotatable=0;whiteSpace=wrap;html=1;" parent="pGuGlMvfogNPuBMcJ-Jp-96" vertex="1">
          <mxGeometry y="30" width="170" height="30" as="geometry" />
        </mxCell>
        <mxCell id="pGuGlMvfogNPuBMcJ-Jp-105" value="Αριθμός: String" style="text;strokeColor=none;fillColor=none;align=left;verticalAlign=middle;spacingLeft=4;spacingRight=4;overflow=hidden;points=[[0,0.5],[1,0.5]];portConstraint=eastwest;rotatable=0;whiteSpace=wrap;html=1;" parent="pGuGlMvfogNPuBMcJ-Jp-96" vertex="1">
          <mxGeometry y="60" width="170" height="30" as="geometry" />
        </mxCell>
        <mxCell id="pGuGlMvfogNPuBMcJ-Jp-107" value="TK: String" style="text;strokeColor=none;fillColor=none;align=left;verticalAlign=middle;spacingLeft=4;spacingRight=4;overflow=hidden;points=[[0,0.5],[1,0.5]];portConstraint=eastwest;rotatable=0;whiteSpace=wrap;html=1;" parent="pGuGlMvfogNPuBMcJ-Jp-96" vertex="1">
          <mxGeometry y="90" width="170" height="30" as="geometry" />
        </mxCell>
        <mxCell id="pGuGlMvfogNPuBMcJ-Jp-97" value="" style="endArrow=none;html=1;rounded=0;entryX=0.25;entryY=0;entryDx=0;entryDy=0;" parent="1" target="pGuGlMvfogNPuBMcJ-Jp-47" edge="1">
          <mxGeometry width="50" height="50" relative="1" as="geometry">
            <mxPoint x="-2" y="130" as="sourcePoint" />
            <mxPoint x="-25" y="210" as="targetPoint" />
          </mxGeometry>
        </mxCell>
        <mxCell id="pGuGlMvfogNPuBMcJ-Jp-98" value="" style="endArrow=none;html=1;rounded=0;entryX=0.794;entryY=-0.002;entryDx=0;entryDy=0;entryPerimeter=0;exitX=0.211;exitY=1.027;exitDx=0;exitDy=0;exitPerimeter=0;" parent="1" source="pGuGlMvfogNPuBMcJ-Jp-11" target="pGuGlMvfogNPuBMcJ-Jp-47" edge="1">
          <mxGeometry width="50" height="50" relative="1" as="geometry">
            <mxPoint x="120" y="230" as="sourcePoint" />
            <mxPoint x="100" y="280" as="targetPoint" />
          </mxGeometry>
        </mxCell>
        <mxCell id="pGuGlMvfogNPuBMcJ-Jp-100" value="" style="endArrow=diamondThin;html=1;rounded=0;endFill=1;" parent="1" edge="1">
          <mxGeometry width="50" height="50" relative="1" as="geometry">
            <mxPoint x="-240" y="530" as="sourcePoint" />
            <mxPoint x="-60" y="622" as="targetPoint" />
            <Array as="points">
              <mxPoint x="-240" y="622" />
            </Array>
          </mxGeometry>
        </mxCell>
        <mxCell id="pGuGlMvfogNPuBMcJ-Jp-104" value="" style="endArrow=diamondThin;html=1;rounded=0;exitX=0.5;exitY=0;exitDx=0;exitDy=0;endFill=1;entryX=-0.022;entryY=0.728;entryDx=0;entryDy=0;entryPerimeter=0;" parent="1" edge="1">
          <mxGeometry width="50" height="50" relative="1" as="geometry">
            <mxPoint x="-231" y="410" as="sourcePoint" />
            <mxPoint x="-24.519999999999982" y="-58.16000000000008" as="targetPoint" />
            <Array as="points">
              <mxPoint x="-226" y="-58" />
            </Array>
          </mxGeometry>
        </mxCell>
        <mxCell id="pGuGlMvfogNPuBMcJ-Jp-110" value="" style="endArrow=none;html=1;rounded=0;entryX=1.008;entryY=0.817;entryDx=0;entryDy=0;entryPerimeter=0;exitX=0;exitY=0.5;exitDx=0;exitDy=0;" parent="1" source="pGuGlMvfogNPuBMcJ-Jp-23" target="pGuGlMvfogNPuBMcJ-Jp-50" edge="1">
          <mxGeometry width="50" height="50" relative="1" as="geometry">
            <mxPoint x="235" y="260" as="sourcePoint" />
            <mxPoint x="236" y="360" as="targetPoint" />
          </mxGeometry>
        </mxCell>
        <mxCell id="WxK2jRO-NAs5T7-9zx6S-3" value="DateRange" style="swimlane;fontStyle=0;childLayout=stackLayout;horizontal=1;startSize=30;horizontalStack=0;resizeParent=1;resizeParentMax=0;resizeLast=0;collapsible=1;marginBottom=0;whiteSpace=wrap;html=1;" parent="1" vertex="1">
          <mxGeometry x="350" y="90" width="190" height="90" as="geometry">
            <mxRectangle x="-50" y="290" width="90" height="30" as="alternateBounds" />
          </mxGeometry>
        </mxCell>
        <mxCell id="WxK2jRO-NAs5T7-9zx6S-4" value="from: Date" style="text;strokeColor=none;fillColor=none;align=left;verticalAlign=middle;spacingLeft=4;spacingRight=4;overflow=hidden;points=[[0,0.5],[1,0.5]];portConstraint=eastwest;rotatable=0;whiteSpace=wrap;html=1;" parent="WxK2jRO-NAs5T7-9zx6S-3" vertex="1">
          <mxGeometry y="30" width="190" height="30" as="geometry" />
        </mxCell>
        <mxCell id="WxK2jRO-NAs5T7-9zx6S-5" value="to: Date" style="text;strokeColor=none;fillColor=none;align=left;verticalAlign=middle;spacingLeft=4;spacingRight=4;overflow=hidden;points=[[0,0.5],[1,0.5]];portConstraint=eastwest;rotatable=0;whiteSpace=wrap;html=1;" parent="WxK2jRO-NAs5T7-9zx6S-3" vertex="1">
          <mxGeometry y="60" width="190" height="30" as="geometry" />
        </mxCell>
        <mxCell id="WxK2jRO-NAs5T7-9zx6S-6" value="TimeRange" style="swimlane;fontStyle=0;childLayout=stackLayout;horizontal=1;startSize=30;horizontalStack=0;resizeParent=1;resizeParentMax=0;resizeLast=0;collapsible=1;marginBottom=0;whiteSpace=wrap;html=1;" parent="1" vertex="1">
          <mxGeometry x="285" y="585" width="190" height="90" as="geometry">
            <mxRectangle x="-50" y="290" width="90" height="30" as="alternateBounds" />
          </mxGeometry>
        </mxCell>
        <mxCell id="WxK2jRO-NAs5T7-9zx6S-7" value="from: Time" style="text;strokeColor=none;fillColor=none;align=left;verticalAlign=middle;spacingLeft=4;spacingRight=4;overflow=hidden;points=[[0,0.5],[1,0.5]];portConstraint=eastwest;rotatable=0;whiteSpace=wrap;html=1;" parent="WxK2jRO-NAs5T7-9zx6S-6" vertex="1">
          <mxGeometry y="30" width="190" height="30" as="geometry" />
        </mxCell>
        <mxCell id="WxK2jRO-NAs5T7-9zx6S-8" value="to: Time" style="text;strokeColor=none;fillColor=none;align=left;verticalAlign=middle;spacingLeft=4;spacingRight=4;overflow=hidden;points=[[0,0.5],[1,0.5]];portConstraint=eastwest;rotatable=0;whiteSpace=wrap;html=1;" parent="WxK2jRO-NAs5T7-9zx6S-6" vertex="1">
          <mxGeometry y="60" width="190" height="30" as="geometry" />
        </mxCell>
        <mxCell id="WxK2jRO-NAs5T7-9zx6S-9" value="" style="endArrow=none;html=1;rounded=0;exitX=0.648;exitY=-0.013;exitDx=0;exitDy=0;exitPerimeter=0;startArrow=diamondThin;startFill=1;" parent="1" source="pGuGlMvfogNPuBMcJ-Jp-32" edge="1">
          <mxGeometry width="50" height="50" relative="1" as="geometry">
            <mxPoint x="520" y="270" as="sourcePoint" />
            <mxPoint x="523" y="180" as="targetPoint" />
          </mxGeometry>
        </mxCell>
        <mxCell id="WxK2jRO-NAs5T7-9zx6S-10" value="" style="endArrow=none;html=1;rounded=0;entryX=0;entryY=0.5;entryDx=0;entryDy=0;startArrow=diamondThin;startFill=1;" parent="1" target="WxK2jRO-NAs5T7-9zx6S-7" edge="1">
          <mxGeometry width="50" height="50" relative="1" as="geometry">
            <mxPoint x="170" y="630" as="sourcePoint" />
            <mxPoint x="175" y="675" as="targetPoint" />
          </mxGeometry>
        </mxCell>
        <mxCell id="WxK2jRO-NAs5T7-9zx6S-16" value="1" style="text;html=1;align=center;verticalAlign=middle;resizable=0;points=[];autosize=1;strokeColor=none;fillColor=none;" parent="1" vertex="1">
          <mxGeometry x="-235" y="380" width="30" height="30" as="geometry" />
        </mxCell>
        <mxCell id="WxK2jRO-NAs5T7-9zx6S-17" value="1" style="text;html=1;align=center;verticalAlign=middle;resizable=0;points=[];autosize=1;strokeColor=none;fillColor=none;" parent="1" vertex="1">
          <mxGeometry x="-240" y="530" width="30" height="30" as="geometry" />
        </mxCell>
        <mxCell id="WxK2jRO-NAs5T7-9zx6S-18" value="1" style="text;html=1;align=center;verticalAlign=middle;resizable=0;points=[];autosize=1;strokeColor=none;fillColor=none;" parent="1" vertex="1">
          <mxGeometry x="10" y="480" width="30" height="30" as="geometry" />
        </mxCell>
        <mxCell id="WxK2jRO-NAs5T7-9zx6S-19" value="*" style="text;html=1;align=center;verticalAlign=middle;resizable=0;points=[];autosize=1;strokeColor=none;fillColor=none;" parent="1" vertex="1">
          <mxGeometry x="8" y="380" width="30" height="30" as="geometry" />
        </mxCell>
        <mxCell id="WxK2jRO-NAs5T7-9zx6S-20" value="*" style="text;html=1;align=center;verticalAlign=middle;resizable=0;points=[];autosize=1;strokeColor=none;fillColor=none;" parent="1" vertex="1">
          <mxGeometry x="140" y="320" width="30" height="30" as="geometry" />
        </mxCell>
        <mxCell id="WxK2jRO-NAs5T7-9zx6S-21" value="1" style="text;html=1;align=center;verticalAlign=middle;resizable=0;points=[];autosize=1;strokeColor=none;fillColor=none;" parent="1" vertex="1">
          <mxGeometry x="270" y="318" width="30" height="30" as="geometry" />
        </mxCell>
        <mxCell id="WxK2jRO-NAs5T7-9zx6S-22" value="1" style="text;html=1;align=center;verticalAlign=middle;resizable=0;points=[];autosize=1;strokeColor=none;fillColor=none;" parent="1" vertex="1">
          <mxGeometry x="490" y="180" width="30" height="30" as="geometry" />
        </mxCell>
        <mxCell id="WxK2jRO-NAs5T7-9zx6S-23" value="*" style="text;html=1;align=center;verticalAlign=middle;resizable=0;points=[];autosize=1;strokeColor=none;fillColor=none;" parent="1" vertex="1">
          <mxGeometry x="255" y="600" width="30" height="30" as="geometry" />
        </mxCell>
        <mxCell id="WxK2jRO-NAs5T7-9zx6S-24" value="1" style="text;html=1;align=center;verticalAlign=middle;resizable=0;points=[];autosize=1;strokeColor=none;fillColor=none;" parent="1" vertex="1">
          <mxGeometry x="100" y="220" width="30" height="30" as="geometry" />
        </mxCell>
        <mxCell id="WxK2jRO-NAs5T7-9zx6S-25" value="1" style="text;html=1;align=center;verticalAlign=middle;resizable=0;points=[];autosize=1;strokeColor=none;fillColor=none;" parent="1" vertex="1">
          <mxGeometry x="-5" y="130" width="30" height="30" as="geometry" />
        </mxCell>
        <mxCell id="WxK2jRO-NAs5T7-9zx6S-26" value="*" style="text;html=1;align=center;verticalAlign=middle;resizable=0;points=[];autosize=1;strokeColor=none;fillColor=none;" parent="1" vertex="1">
          <mxGeometry x="-5" y="260" width="30" height="30" as="geometry" />
        </mxCell>
        <mxCell id="WxK2jRO-NAs5T7-9zx6S-27" value="0..2" style="text;html=1;align=center;verticalAlign=middle;resizable=0;points=[];autosize=1;strokeColor=none;fillColor=none;" parent="1" vertex="1">
          <mxGeometry x="100" y="260" width="40" height="30" as="geometry" />
        </mxCell>
      </root>
    </mxGraphModel>
  </diagram>
</mxfile>
